<?xml version="1.0" encoding="iso-8859-1"?>
<!-- Generator: Adobe Illustrator 18.0.0, SVG Export Plug-In . SVG Version: 6.00 Build 0)  -->
<!DOCTYPE svg PUBLIC "-//W3C//DTD SVG 1.1//EN" "http://www.w3.org/Graphics/SVG/1.1/DTD/svg11.dtd">
<svg xmlns="http://www.w3.org/2000/svg" xmlns:xlink="http://www.w3.org/1999/xlink" version="1.1" id="Capa_1" x="0px" y="0px" viewBox="0 0 449 449" style="enable-background:new 0 0 449 449;" xml:space="preserve" width="512px" height="512px">
<g>
	<path d="M385.534,441.092L366.744,96.39c-0.217-3.978-3.505-7.092-7.489-7.092h-69.461V65.294C289.794,29.291,260.503,0,224.5,0   s-65.294,29.291-65.294,65.294v24.004H89.745c-3.983,0-7.272,3.114-7.489,7.092l-18.79,344.702   c-0.112,2.057,0.626,4.069,2.043,5.565c1.417,1.496,3.386,2.343,5.446,2.343h307.09c2.06,0,4.029-0.847,5.446-2.343   C384.907,445.161,385.646,443.148,385.534,441.092z M174.206,65.294C174.206,37.562,196.768,15,224.5,15   s50.294,22.562,50.294,50.294v24.004H174.206V65.294z M78.875,434l17.972-329.702h62.359v31.875c0,4.142,3.358,7.5,7.5,7.5   s7.5-3.358,7.5-7.5v-31.875h100.588v31.875c0,4.142,3.358,7.5,7.5,7.5s7.5-3.358,7.5-7.5v-31.875h62.358L370.125,434H78.875z" fill="#000033"/>
	<path d="M282.992,243.998l-35.206-6.068l-16.651-31.608c-1.297-2.463-3.852-4.004-6.636-4.004s-5.338,1.542-6.636,4.004   l-16.65,31.608l-35.206,6.068c-2.743,0.473-4.999,2.426-5.859,5.074c-0.86,2.647-0.184,5.553,1.758,7.548l24.916,25.603   l-5.108,35.358c-0.398,2.755,0.763,5.504,3.015,7.14c2.252,1.637,5.226,1.892,7.722,0.661l32.049-15.784l32.05,15.784   c1.05,0.517,2.184,0.771,3.313,0.771c1.557,0,3.104-0.484,4.409-1.433c2.252-1.636,3.413-4.385,3.015-7.14l-5.108-35.358   l24.916-25.603c1.941-1.995,2.618-4.901,1.758-7.548C287.991,246.424,285.736,244.471,282.992,243.998z M248.852,274.408   c-1.624,1.669-2.381,3.998-2.048,6.303l3.601,24.923l-22.591-11.126c-1.044-0.514-2.179-0.771-3.313-0.771   s-2.269,0.257-3.313,0.771l-22.591,11.126l3.601-24.923c0.333-2.305-0.424-4.634-2.048-6.303l-17.563-18.047l24.816-4.277   c2.295-0.396,4.276-1.835,5.362-3.896l11.736-22.28l11.737,22.28c1.085,2.061,3.067,3.5,5.362,3.896l24.816,4.277L248.852,274.408z   " fill="#000033"/>
</g>
<g>
</g>
<g>
</g>
<g>
</g>
<g>
</g>
<g>
</g>
<g>
</g>
<g>
</g>
<g>
</g>
<g>
</g>
<g>
</g>
<g>
</g>
<g>
</g>
<g>
</g>
<g>
</g>
<g>
</g>
</svg>
