<?xml version="1.0" encoding="utf-8"?>
<!-- Generator: Adobe Illustrator 23.0.1, SVG Export Plug-In . SVG Version: 6.00 Build 0)  -->
<svg version="1.1" id="Capa_1" xmlns="http://www.w3.org/2000/svg" xmlns:xlink="http://www.w3.org/1999/xlink" x="0px" y="0px"
	 viewBox="0 0 512 512" style="enable-background:new 0 0 512 512;" xml:space="preserve">
<style type="text/css">
	.st0{fill:#000033;}
</style>
<g>
	<g>
		<path class="st0" d="M503.5,59.7H8.5c-4.7,0-8.5,3.8-8.5,8.5v349.9c0,4.7,3.8,8.5,8.5,8.5h221.9v-17.1H17.1V76.8h477.9v332.8
			H281.6v17.1h221.9c4.7,0,8.5-3.8,8.5-8.5V68.3C512,63.6,508.2,59.7,503.5,59.7z"/>
	</g>
</g>
<g>
	<g>
		<path class="st0" d="M469.3,128c-14.1,0-25.6-11.5-25.6-25.6c0-4.7-3.8-8.5-8.5-8.5H76.8c-4.7,0-8.5,3.8-8.5,8.5
			c0,14.1-11.5,25.6-25.6,25.6c-4.7,0-8.5,3.8-8.5,8.5v213.3c0,4.7,3.8,8.5,8.5,8.5c14.1,0,25.6,11.5,25.6,25.6
			c0,4.7,3.8,8.5,8.5,8.5h153.6v-17.1H84.5c-3.4-16.7-16.6-29.9-33.3-33.3v-198c16.7-3.4,29.9-16.6,33.3-33.3h343.1
			c3.4,16.7,16.6,29.9,33.3,33.3v198c-16.7,3.4-29.9,16.6-33.3,33.3H281.6v17.1h153.6c4.7,0,8.5-3.8,8.5-8.5
			c0-14.1,11.5-25.6,25.6-25.6c4.7,0,8.5-3.8,8.5-8.5V136.5C477.9,131.8,474.1,128,469.3,128z"/>
	</g>
</g>
<g>
	<g>
		<path class="st0" d="M256,298.7c-28.2,0-51.2,23-51.2,51.2s23,51.2,51.2,51.2s51.2-23,51.2-51.2S284.2,298.7,256,298.7z M256,384
			c-18.8,0-34.1-15.3-34.1-34.1c0-18.8,15.3-34.1,34.1-34.1c18.8,0,34.1,15.3,34.1,34.1S274.8,384,256,384z"/>
	</g>
</g>
<g>
	<g>
		<path class="st0" d="M273.1,384v43.8l-12.3-8.2c-2.9-1.9-6.6-1.9-9.5,0l-12.3,8.2V384h-17.1v59.7c0,3.1,1.7,6,4.5,7.5
			c2.8,1.5,6.1,1.3,8.8-0.4l20.9-13.9l20.9,13.9c1.4,0.9,3.1,1.4,4.7,1.4c1.4,0,2.8-0.3,4-1c2.8-1.5,4.5-4.4,4.5-7.5V384H273.1z"/>
	</g>
</g>
<g>
	<g>
		<rect x="196.3" y="136.5" class="st0" width="119.5" height="17.1"/>
	</g>
</g>
<g>
	<g>
		<rect x="93.9" y="179.2" class="st0" width="332.8" height="17.1"/>
	</g>
</g>
<g>
	<g>
		<rect x="162.1" y="221.9" class="st0" width="187.7" height="17.1"/>
	</g>
</g>
<g>
	<g>
		<rect x="128" y="264.5" class="st0" width="247.5" height="17.1"/>
	</g>
</g>
<g>
	<g>
		<rect x="102.4" y="324.3" class="st0" width="76.8" height="17.1"/>
	</g>
</g>
<g>
	<g>
		<rect x="332.8" y="324.3" class="st0" width="76.8" height="17.1"/>
	</g>
</g>
</svg>
