<?xml version="1.0" encoding="utf-8"?>
<!-- Generator: Adobe Illustrator 23.0.1, SVG Export Plug-In . SVG Version: 6.00 Build 0)  -->
<svg version="1.1" id="Calque_1" xmlns="http://www.w3.org/2000/svg" xmlns:xlink="http://www.w3.org/1999/xlink" x="0px" y="0px"
	 viewBox="0 0 512 512" style="enable-background:new 0 0 512 512;" xml:space="preserve">
<style type="text/css">
	.st0{fill:#000033;}
</style>
<path class="st0" d="M477.9,89.7h-33.3c-20.2,0.1-39.5-8-53.7-22.2l-9.4-9.4c-34.1-34-88.5-36.4-125.5-5.5
	c-37-30.9-91.4-28.5-125.5,5.5l-9.4,9.4c-14.2,14.3-33.5,22.3-53.7,22.3H34.1c-18.1,0-33,14.1-34,32.1c-1,18,12.2,33.7,30.1,35.8
	L46,173.4c55.6,55.9,131.2,87.2,210,87c31.6,0,63-5,93-15l0.9,7.5c0.5,4.3,4.2,7.5,8.4,7.5h8.5v94.7h-17.1c-4.7,0-8.5,3.8-8.5,8.5
	v110.9c0,4.7,3.8,8.5,8.5,8.5h51.2c4.7,0,8.5-3.8,8.5-8.5V363.7c0-4.7-3.8-8.5-8.5-8.5H384v-94.7h8.5c4.3,0,7.9-3.2,8.5-7.5
	l4.1-32.8c22.2-12.9,42.7-28.6,60.9-46.7l15.8-15.8c17.9-2.1,31.2-17.8,30.1-35.8C510.9,103.8,496,89.7,477.9,89.7z M392.5,466.1
	h-34.1v-93.9h34.1V466.1z M385,243.3h-19.1l-6.4-51.2h31.9L385,243.3z M407.8,198.5l1.7-13.9c0.3-2.4-0.5-4.9-2.1-6.7
	c-1.6-1.8-3.9-2.9-6.4-2.9h-51.2c-2.4,0-4.8,1.1-6.4,2.9c-1.6,1.8-2.4,4.3-2.1,6.7l5.4,43.5c-29.2,10.1-59.9,15.2-90.8,15.2
	c-74.3,0.2-145.6-29.3-197.9-82l-3.4-3.4h71.2c22.2,0.1,43.7-7.6,60.9-21.8c17.6,20,41.4,33.6,67.5,38.7c0.4,0.1,0.9,0.1,1.3,0.1
	c1,0,1.9-0.1,2.9-0.3c25.9-5.2,49.3-18.7,66.7-38.5c17.1,14.1,38.7,21.8,60.9,21.8h71.2l-3.4,3.4
	C439.9,175.3,424.5,187.8,407.8,198.5L407.8,198.5z M477.9,140.9h-91.8c-20.9,0.1-41-8.3-55.8-23.1c-1.7-1.7-4.2-2.7-6.6-2.5
	c-2.5,0.2-4.7,1.4-6.2,3.4c-15,20.1-36.9,34-61.4,39.1c-24.6-5.1-46.4-19-61.4-39.1c-1.5-2-3.8-3.2-6.2-3.4h-0.6
	c-2.3,0-4.4,0.9-6,2.5c-14.8,14.8-34.8,23.2-55.8,23.1H34.1c-9.4,0-17.1-7.6-17.1-17.1c0-9.4,7.6-17.1,17.1-17.1h33.3
	c24.7,0.1,48.4-9.7,65.8-27.2l9.4-9.4c29.7-29.6,77.7-29.6,107.4,0c3.3,3.3,8.7,3.3,12.1,0c29.7-29.6,77.7-29.6,107.4,0l9.4,9.4
	c17.4,17.5,41.1,27.3,65.8,27.2h33.3c9.4,0,17.1,7.6,17.1,17.1C495,133.3,487.3,140.9,477.9,140.9z"/>
</svg>
