<?xml version="1.0" encoding="utf-8"?>
<!-- Generator: Adobe Illustrator 23.0.1, SVG Export Plug-In . SVG Version: 6.00 Build 0)  -->
<svg version="1.1" id="Calque_1" xmlns="http://www.w3.org/2000/svg" xmlns:xlink="http://www.w3.org/1999/xlink" x="0px" y="0px"
	 viewBox="0 0 512 512" style="enable-background:new 0 0 512 512;" xml:space="preserve">
<style type="text/css">
	.st0{fill:#000033;}
</style>
<path class="st0" d="M509.5,77.1L497.4,65l-29.5,29.5C350.1,212,159.4,212,41.6,94.5L12.1,65L0,77.1l29.5,29.5
	c3.4,3.4,7,6.8,10.6,10c-1.5,12.9-12.4,22.7-25.4,22.8H6.1v17.2h8.6c17.7,0,33.5-10.9,39.9-27.4c6.4,5.2,13,10,19.7,14.7
	c-1.9,14-12.4,25.4-26.3,28.2l-9.3,1.9l3.4,16.8l9.2-1.8c18.3-3.7,33-17.3,38.3-35.2c6.3,3.8,12.7,7.4,19.2,10.8
	c-0.9,23.4-15.5,44.1-37.3,52.7l6.4,15.9c25.7-10.2,43.8-33.4,47.5-60.8c5.9,2.6,11.9,5.1,17.9,7.3v2.6
	c-0.1,24.3-11.5,47.1-30.9,61.7l10.3,13.7c22.8-17.2,36.6-43.8,37.5-72.3c5.7,1.8,11.5,3.4,17.3,4.9V206c0.1,21-8.3,41.2-23.2,56
	l12.1,12.1c18.1-18,28.3-42.6,28.2-68.2v-11.9c5.7,1.1,11.4,2,17.2,2.8v15.7c0,23.9-5.6,47.4-16.3,68.8l15.3,7.7
	c11.8-23.8,18-49.9,18.1-76.5v-13.9c5.7,0.5,11.4,0.8,17.2,0.9v85.6h17.2v-85.6c5.7-0.2,11.4-0.4,17.2-0.9v13.9
	c0,26.5,6.2,52.7,18,76.5l15.3-7.7c-10.6-21.4-16.2-44.9-16.2-68.8v-15.7c5.7-0.8,11.5-1.7,17.2-2.8V206
	c-0.1,25.6,10.1,50.1,28.2,68.2l12.1-12.1c-14.9-14.8-23.3-35-23.2-56.1v-15.6c5.8-1.4,11.6-3.1,17.3-4.9
	c1,28.5,14.8,55.1,37.5,72.3l10.3-13.7c-19.4-14.6-30.8-37.5-30.9-61.7v-2.6c6-2.2,12-4.7,17.9-7.3c3.7,27.4,21.8,50.6,47.5,60.8
	l6.4-15.9c-21.8-8.7-36.4-29.3-37.3-52.7c6.5-3.3,12.9-6.9,19.2-10.8c5.3,17.9,20,31.4,38.3,35.2l9.2,1.8l3.4-16.8l-9.2-1.9
	c-13.9-2.8-24.5-14.2-26.4-28.3c6.7-4.6,13.3-9.5,19.7-14.7c6.4,16.5,22.2,27.4,39.9,27.5h8.6v-17.2h-8.6c-13,0-24-9.8-25.4-22.8
	c3.6-3.3,7.1-6.6,10.6-10L509.5,77.1z"/>
<path class="st0" d="M503.4,345.3H400.5c-4.7,0-8.6,3.8-8.6,8.6v25.7h-42.9v-17.2h-17.2v17.2h-17.2v-34.3h-17.2v34.3h-17.2v-42.9
	h-17.2v42.9h-17.2v-51.5H229v51.5h-17.2v-51.5h-17.2v51.5h-17.2v-51.5h-17.2v51.5h-17.2v-51.5h-17.2v51.5H109v-34.3H91.8v34.3H74.7
	v-17.2H57.5v17.2H40.4v17.2h17.2v17.2h17.2v-17.2h17.2V431H109v-34.3h17.2v51.5h17.2v-51.5h17.2v51.5h17.2v-51.5h17.2v51.5h17.2
	v-51.5H229v51.5h17.2v-51.5h17.2v42.9h17.2v-42.9h17.2V431h17.2v-34.3h17.2v17.2h17.2v-17.2h42.9v25.7c0,4.7,3.8,8.6,8.6,8.6h102.9
	c4.7,0,8.6-3.8,8.6-8.6v-68.6C512,349.1,508.2,345.3,503.4,345.3z M494.8,413.9h-85.8v-51.5h85.8V413.9z"/>
<path class="st0" d="M317.1,147.7l-4.7-16.5c-37.7,10.8-77.6,10.8-115.3,0l-4.7,16.5c20.3,5.8,41.3,8.7,62.4,8.7
	S296.8,153.5,317.1,147.7z"/>
</svg>
