<?xml version="1.0" encoding="utf-8"?>
<!-- Generator: Adobe Illustrator 23.0.1, SVG Export Plug-In . SVG Version: 6.00 Build 0)  -->
<svg version="1.1" id="Capa_1" xmlns="http://www.w3.org/2000/svg" xmlns:xlink="http://www.w3.org/1999/xlink" x="0px" y="0px"
	 viewBox="0 0 512 512" style="enable-background:new 0 0 512 512;" xml:space="preserve">
<style type="text/css">
	.st0{fill:#000033;}
</style>
<path class="st0" d="M508.4,3.6c-3.8-3.8-9.7-4.7-14.5-2.2L440,30.1c-0.2,0.1-0.4,0.2-0.6,0.3l-53.6,28.5c-0.6,0.3-1.2,0.7-1.8,1.1
	c-0.6,0.4-1.1,0.9-1.6,1.4L165,278.8c-4.8-4.8-12.6-4.8-17.4,0l-131,131c-0.1,0.1-0.2,0.2-0.3,0.3c-22.2,23.6-21.6,61.4,1.3,84.3
	C29.2,506.1,44.8,512,60.4,512c15,0,29.9-5.4,41.5-16.3c0.1-0.1,0.2-0.2,0.3-0.3l131-131c4.8-4.8,4.8-12.6,0-17.5h0l217.5-217.5
	c0.9-0.9,1.7-1.9,2.3-3v0c0,0,0,0,0,0c0,0,0,0,0,0c0,0,0,0,0,0c0,0,0-0.1,0.1-0.1l28.6-53.9c0.1-0.2,0.2-0.3,0.3-0.5l28.6-53.9
	C513.1,13.3,512.2,7.4,508.4,3.6z M84.8,477.9c-14,13-36.3,12.7-49.8-0.9s-13.9-35.8-0.9-49.8L156.3,305l50.7,50.7c0,0,0,0,0,0h0
	L84.8,477.9z M215.7,329.5l-33.3-33.3L391.4,87.3l33.3,33.3L215.7,329.5z M439.1,100.1l-27.1-27.1l31.3-16.7l12.4,12.4L439.1,100.1z
	 M467.8,45.9l-1.8-1.8l3.8-2L467.8,45.9z"/>
</svg>
