<?xml version="1.0" encoding="utf-8"?>
<!-- Generator: Adobe Illustrator 23.0.1, SVG Export Plug-In . SVG Version: 6.00 Build 0)  -->
<svg version="1.1" id="Calque_1" xmlns="http://www.w3.org/2000/svg" xmlns:xlink="http://www.w3.org/1999/xlink" x="0px" y="0px"
	 viewBox="0 0 512 512" style="enable-background:new 0 0 512 512;" xml:space="preserve">
<style type="text/css">
	.st0{fill:#000033;}
</style>
<path class="st0" d="M92.9,500.1c14,14.1,36.2,15.9,52.4,4.3l143.6-102.5c10.7-7.6,17-20,17.1-33.1v-26.1c0-2.3-0.9-4.4-2.5-6
	l-19.6-19.6l20.9-20.9c3.3-3.3,3.3-8.7,0-12.1l-68.3-68.3c-3.3-3.3-8.7-3.3-12.1,0l-20.9,20.9L184,217.2c-1.3-1.3-2.9-2.1-4.6-2.4
	l-31.4-5.2c-15.3-2.5-30.7,3.9-39.8,16.5L7.6,366.7C-4,382.9-2.2,405.1,12,419.1L92.9,500.1z M230.4,234l56.2,56.2L271.8,305
	l-56.2-56.2L230.4,234z M21.5,376.6L122,235.9c4.5-6.2,11.6-9.9,19.3-9.9c1.3,0,2.6,0.1,3.8,0.3l28.7,4.8l115,115v22.6
	c0,7.6-3.7,14.8-9.9,19.2L135.4,490.5c-9.4,6.7-22.3,5.6-30.4-2.6L24,407C15.8,398.9,14.8,386,21.5,376.6z"/>
<path class="st0" d="M135.2,462.1c1.9,0,3.7-0.6,5.2-1.8L251.4,375c1.9-1.5,3.2-3.8,3.3-6.2c0.2-2.4-0.7-4.9-2.5-6.6L149.8,259.8
	l-12.1,12.1l95.5,95.6L136,442.3l-71.5-71.5l-12.1,12.1l76.8,76.8C130.8,461.2,133,462.1,135.2,462.1z"/>
<path class="st0" d="M292.6,245c1.6,1.6,3.8,2.5,6,2.5h0.6c2.5-0.2,4.7-1.4,6.2-3.4l25.6-34.1c2.5-3.4,2.2-8.1-0.8-11.2l-2.5-2.5
	l39.1-39.1l36.6,36.6c1.6,1.6,3.8,2.5,6,2.5h0.6c2.5-0.2,4.8-1.5,6.2-3.5l93.9-128c2.5-3.4,2.1-8.1-0.8-11.1L458.3,2.5
	c-3-3-7.7-3.3-11.1-0.9l-128,93.9c-2,1.5-3.3,3.8-3.5,6.2c-0.2,2.5,0.7,4.9,2.5,6.7l36.6,36.6l-39.1,39.1l-2.5-2.5
	c-3-3-7.8-3.3-11.2-0.8L268,206.5c-2,1.5-3.2,3.8-3.4,6.2s0.7,4.9,2.5,6.6L292.6,245z M451.4,19.8l40.8,40.8l-18.7,25.5l-32.4-32.3
	l-12.1,12.1l34.2,34.2l-11.4,15.6l-36.3-36.3l-12.1,12.1l38.1,38.1l-11.4,15.6l-48.8-48.8l-12.1,12.1l50.6,50.6l-11.4,15.6
	l-71.3-71.3L451.4,19.8z M306.4,199l6.6,6.6L297.8,226l-11.7-11.7L306.4,199z"/>
</svg>
