<?xml version="1.0" encoding="utf-8"?>
<!-- Generator: Adobe Illustrator 23.0.1, SVG Export Plug-In . SVG Version: 6.00 Build 0)  -->
<svg version="1.1" id="Calque_1" xmlns="http://www.w3.org/2000/svg" xmlns:xlink="http://www.w3.org/1999/xlink" x="0px" y="0px"
	 viewBox="0 0 512 512" style="enable-background:new 0 0 512 512;" xml:space="preserve">
<style type="text/css">
	.st0{fill:#000033;}
</style>
<path class="st0" d="M510.6,131.1c2.2-3.4,1.8-7.9-1.1-10.8l-30.6-30.7c-43.2-43.2-104.8-62.5-164.9-51.7L28.7,89.1
	c-14,2.5-25,13.3-27.9,27.2c-2.9,13.9,2.9,28.2,14.8,36.1l1.2,0.8c7.8,5.2,17.4,7,26.6,5.1l268.6-58.1c43.5-9.4,88.7-5.6,130,10.9
	l58.2,23.3C504,135.9,508.3,134.5,510.6,131.1z M448.4,95.1c-44.5-17.8-93.3-21.9-140.1-11.8L39.7,141.4c-4.7,1-9.5,0.1-13.5-2.6
	L25,138c-6-4-8.9-11.2-7.5-18.3c1.5-7,7.1-12.5,14.1-13.8L317,54.8c54.6-9.8,110.5,7.7,149.7,46.9l1,1.1L448.4,95.1z"/>
<path class="st0" d="M408.9,478.8h51.6c4.7,0,8.6-3.8,8.6-8.6v-318c0-3.3-1.8-6.2-4.8-7.7l-51.6-25.8c-2.7-1.3-5.8-1.2-8.4,0.4
	c-2.5,1.6-4.1,4.3-4.1,7.3v100l-26.9,31.4c-14.1,16.5-31.5,30-50.9,39.8l-1.5,0.7c-22.7,11.3-47.6,17.2-73,17.2h-26.1
	c-51.4,0-99.7-24.2-130.5-65.3l-3.9-5.2c-11.4-15.1-29.2-24-48.1-24.1v17.2c13.5,0,26.2,6.4,34.4,17.2l3.9,5.2
	c1.1,1.4,2.2,2.7,3.3,4.1l-2.8,5.5c-6.7,13.6-18.6,23.9-33,28.6l5.4,16.3c18.4-6.1,33.7-19.2,42.5-36.5c7.1,7.3,14.9,14,23.1,20
	c-5.4,20.1-16,38.4-30.7,53.1l-0.7,0.7l12.1,12.2l0.7-0.7c15.5-15.6,27.1-34.6,33.7-55.6c8.9,5.2,18.3,9.5,27.9,13.1
	c-0.8,19.3-5.6,38.2-14.1,55.4l-1.8,3.6l15.4,7.7l1.8-3.6c9-18,14.3-37.6,15.8-57.7c13.8,3.6,28,5.6,42.3,5.8l-7.4,59.2l17.1,2.1
	l7.7-61.2h12c5.2,0,10.5-0.3,15.7-0.8l7.7,62l17.1-2.1l-7.7-62.2c9.5-1.8,18.8-4.3,28-7.5c4.3,20.8,12.5,40.6,24.3,58.3l14.3-9.5
	c-10.7-16.1-18.2-34.1-22-53.1l-0.5-2.4c1.3-0.6,2.6-1.2,3.9-1.8l1.5-0.7c7.3-3.7,14.4-8,21.2-12.7c5.9,19.7,18.5,36.8,35.6,48.2
	l9.5-14.3c-14.8-9.9-25.4-24.9-29.7-42.2l-0.7-2.9c7.3-6.1,14.2-12.8,20.4-20l13.9-16.2v217.5C400.3,474.9,404.1,478.8,408.9,478.8z
	 M417.5,461.6V220.9h34.4v240.7H417.5z M417.5,186.5h34.4v17.2h-34.4V186.5z M451.8,157.5v11.9h-34.4v-29.1L451.8,157.5z"/>
</svg>
