<?xml version="1.0" encoding="utf-8"?>
<!-- Generator: Adobe Illustrator 23.0.1, SVG Export Plug-In . SVG Version: 6.00 Build 0)  -->
<svg version="1.1" id="Calque_1" xmlns="http://www.w3.org/2000/svg" xmlns:xlink="http://www.w3.org/1999/xlink" x="0px" y="0px"
	 viewBox="0 0 479 479" style="enable-background:new 0 0 479 479;" xml:space="preserve">
<style type="text/css">
	.st0{fill:#000033;}
</style>
<path class="st0" d="M69.8,479c6.6,0,12.9-2.6,17.6-7.3l72.5-72.5h17.3c19.4,28.2,44.4,52.1,73.4,70.2c20.6,12.9,46.8,12.9,67.5,0
	c73.6-45.7,118.2-126.2,117.9-212.8v-56.9C436,146.9,408.6,98,363.6,70.5C358.9,30.3,324.9,0,284.4,0c-40.4,0-74.5,30.3-79.2,70.5
	c-45,27.5-72.4,76.4-72.5,129.1v56.9c0,17,1.8,34,5.3,50.7c-8.6,10.1-13.2,22.8-13.2,36v20.6l-72.5,72.5c-7.1,7.1-9.3,17.8-5.4,27.2
	C50.7,472.9,59.7,479,69.8,479z M132.7,403.8l-12.7-12.7l12.7-12.7l12.7,12.7L132.7,403.8z M140.7,343.3c0-22,17.9-39.9,39.9-39.9
	c22,0,39.9,17.9,39.9,39.9s-17.9,39.9-39.9,39.9H160l-19.3-19.3V343.3z M309.7,455.8c-15.5,9.5-35,9.5-50.6,0
	c-24.7-15.4-46.3-35.3-63.7-58.7c21-5.8,36.7-23.2,40.3-44.7c3.6-21.5-5.6-43.1-23.6-55.3c-18-12.3-41.5-12.9-60.1-1.7
	c-2.2-12.8-3.2-25.8-3.2-38.9v-29.7l63.9-64c52,49.4,121,76.8,192.7,76.6h14.8v17C420.4,337.6,378.6,413,309.7,455.8z M284.4,16
	c27.9,0.1,52.5,18.2,60.9,44.8c-38.8-17.1-83-17.1-121.8,0C231.9,34.1,256.5,16,284.4,16z M284.4,63.9
	c74.9,0.1,135.6,60.8,135.7,135.7v24h-14.8c-70.2,0.2-137.6-27.7-187.1-77.5c-3.1-3.1-8.2-3.1-11.3,0l-58.2,58.2v-4.7
	C148.8,124.7,209.5,63.9,284.4,63.9z M63.5,447.8l45.3-45.3l12.7,12.7l-45.3,45.3c-3.5,3.5-9.2,3.5-12.7,0
	C60,456.9,60,451.2,63.5,447.8z"/>
<path class="st0" d="M340.3,271.4c-13.2,0-24-10.7-24-24h-16c0,22,17.9,39.9,39.9,39.9c22,0,39.9-17.9,39.9-39.9h-16
	C364.3,260.7,353.5,271.4,340.3,271.4z"/>
<path class="st0" d="M228.5,271.4c-13.2,0-24-10.7-24-24h-16c0,22,17.9,39.9,39.9,39.9c22,0,39.9-17.9,39.9-39.9h-16
	C252.5,260.7,241.8,271.4,228.5,271.4z"/>
</svg>
